<?xml version="1.0" encoding="UTF-8" standalone="no"?>
<!-- Created with Inkscape (http://www.inkscape.org/) -->

<svg
   xmlns:dc="http://purl.org/dc/elements/1.1/"
   xmlns:cc="http://creativecommons.org/ns#"
   xmlns:rdf="http://www.w3.org/1999/02/22-rdf-syntax-ns#"
   xmlns:svg="http://www.w3.org/2000/svg"
   xmlns="http://www.w3.org/2000/svg"
   xmlns:sodipodi="http://sodipodi.sourceforge.net/DTD/sodipodi-0.dtd"
   xmlns:inkscape="http://www.inkscape.org/namespaces/inkscape"
   width="500"
   height="500"
   viewBox="0 0 499.99998 499.99998"
   id="svg2"
   version="1.1"
   inkscape:version="0.91 r13725"
   inkscape:export-filename="C:\Users\Antonio\Documents\GitHub\xamarin-plugins\M16.StoreInteractions\icon.png"
   inkscape:export-xdpi="8.6400003"
   inkscape:export-ydpi="8.6400003"
   sodipodi:docname="icon.svg">
  <defs
     id="defs4" />
  <sodipodi:namedview
     id="base"
     pagecolor="#ffffff"
     bordercolor="#666666"
     borderopacity="1.0"
     inkscape:pageopacity="0.0"
     inkscape:pageshadow="2"
     inkscape:zoom="1"
     inkscape:cx="64.324995"
     inkscape:cy="223.98362"
     inkscape:document-units="px"
     inkscape:current-layer="layer5"
     showgrid="false"
     units="px"
     borderlayer="true"
     inkscape:window-width="1920"
     inkscape:window-height="1027"
     inkscape:window-x="1358"
     inkscape:window-y="-8"
     inkscape:window-maximized="1" />
  <metadata
     id="metadata7">
    <rdf:RDF>
      <cc:Work
         rdf:about="">
        <dc:format>image/svg+xml</dc:format>
        <dc:type
           rdf:resource="http://purl.org/dc/dcmitype/StillImage" />
        <dc:title></dc:title>
      </cc:Work>
    </rdf:RDF>
  </metadata>
  <g
     inkscape:groupmode="layer"
     id="layer2"
     inkscape:label="Green"
     style="display:inline"
     sodipodi:insensitive="true">
    <rect
       style="opacity:0.98999999;fill:#77d065;fill-opacity:1;stroke:none;stroke-width:1.95986569;stroke-miterlimit:4;stroke-dasharray:none;stroke-dashoffset:0;stroke-opacity:1"
       id="rect4687"
       width="568.34845"
       height="568.34845"
       x="-0.76724505"
       y="-515.06763"
       transform="matrix(0.07858356,0.99690753,-0.99690753,0.07858356,0,0)" />
  </g>
  <g
     inkscape:label="Blue"
     inkscape:groupmode="layer"
     id="layer1"
     transform="translate(0,-552.36223)"
     style="display:inline"
     sodipodi:insensitive="true">
    <rect
       style="opacity:0.98999999;fill:#3498db;fill-opacity:1;stroke:none;stroke-width:1.00825417;stroke-miterlimit:4;stroke-dasharray:none;stroke-dashoffset:0;stroke-opacity:1"
       id="rect4684"
       width="511.51358"
       height="511.51358"
       x="401.23511"
       y="-806.73853"
       transform="matrix(-0.43039841,0.90263903,-0.90263903,-0.43039841,0,0)" />
  </g>
  <g
     inkscape:groupmode="layer"
     id="layer3"
     inkscape:label="Purple"
     sodipodi:insensitive="true">
    <rect
       style="opacity:0.98999999;fill:#b455b6;fill-opacity:1;stroke:none;stroke-width:1.89999998;stroke-miterlimit:4;stroke-dasharray:none;stroke-dashoffset:0;stroke-opacity:1"
       id="rect4690"
       width="454.67874"
       height="454.67874"
       x="112.74203"
       y="-207.9577"
       transform="matrix(0.56650912,0.82405547,-0.82405547,0.56650912,0,0)" />
  </g>
  <g
     inkscape:groupmode="layer"
     id="layer4"
     inkscape:label="Strong blue"
     sodipodi:insensitive="true">
    <rect
       style="opacity:0.98999999;fill:#2c3e50;fill-opacity:1;stroke:none;stroke-width:1.89999998;stroke-miterlimit:4;stroke-dasharray:none;stroke-dashoffset:0;stroke-opacity:1"
       id="rect4693"
       width="397.8439"
       height="397.8439"
       x="104.4609"
       y="-57.377045"
       transform="matrix(0.76048704,0.64935311,-0.64935311,0.76048704,0,0)" />
  </g>
  <g
     inkscape:groupmode="layer"
     id="layer5"
     inkscape:label="Icon">
    <path
       inkscape:connector-curvature="0"
       d="m 179.99998,354.99992 c -19.3375,0 -34.825,15.6625 -34.825,34.99999 0,19.3375 15.4875,35 34.825,35 19.3375,0 34.99999,-15.6625 34.99999,-35 0,-19.33749 -15.66249,-34.99999 -34.99999,-34.99999 z M 74.99999,75.000035 l 0,34.999905 35,0 62.91249,132.73749 -23.625,42.875 c -2.7125,5.075 -4.2875,10.7625 -4.2875,16.88749 0,19.3375 15.6625,35 35,35 l 209.99997,0 0,-35 -202.56247,0 c -2.45,0 -4.375,-1.925 -4.375,-4.37499 0,-0.7875 0.175,-1.4875 0.525,-2.1 l 15.6625,-28.52501 130.37498,0 c 13.125,0 24.5875,-7.26249 30.625,-18.02499 l 62.56249,-113.57499 c 1.4,-2.45 2.1875,-5.3375 2.1875,-8.4 0,-9.7125 -7.875,-17.5 -17.5,-17.5 l -258.73747,0 -16.625,-34.999905 -57.13749,0 z M 354.99996,354.99992 c -19.3375,0 -34.825,15.6625 -34.825,34.99999 0,19.3375 15.4875,35 34.825,35 19.33749,0 34.99999,-15.6625 34.99999,-35 0,-19.33749 -15.6625,-34.99999 -34.99999,-34.99999 z"
       id="path4"
       style="fill:#ecf0f1;fill-opacity:1" />
  </g>
</svg>
